<?xml version="1.0" encoding="UTF-8" standalone="no"?>
<!-- Generator: Adobe Illustrator 19.0.0, SVG Export Plug-In . SVG Version: 6.00 Build 0)  -->

<svg
   xmlns:dc="http://purl.org/dc/elements/1.1/"
   xmlns:cc="http://creativecommons.org/ns#"
   xmlns:rdf="http://www.w3.org/1999/02/22-rdf-syntax-ns#"
   xmlns:svg="http://www.w3.org/2000/svg"
   xmlns="http://www.w3.org/2000/svg"
   xmlns:sodipodi="http://sodipodi.sourceforge.net/DTD/sodipodi-0.dtd"
   xmlns:inkscape="http://www.inkscape.org/namespaces/inkscape"
   version="1.1"
   id="Layer_1"
   x="0px"
   y="0px"
   viewBox="0 0 100 100"
   xml:space="preserve"
   sodipodi:docname="twitter.svg"
   width="100"
   height="100"
   inkscape:version="0.92.1 r15371"><metadata
     id="metadata39"><rdf:RDF><cc:Work
         rdf:about=""><dc:format>image/svg+xml</dc:format><dc:type
           rdf:resource="http://purl.org/dc/dcmitype/StillImage" /><dc:title></dc:title></cc:Work></rdf:RDF></metadata><defs
     id="defs37" /><sodipodi:namedview
     pagecolor="#ffffff"
     bordercolor="#666666"
     borderopacity="1"
     objecttolerance="10"
     gridtolerance="10"
     guidetolerance="10"
     inkscape:pageopacity="0"
     inkscape:pageshadow="2"
     inkscape:window-width="1920"
     inkscape:window-height="1057"
     id="namedview35"
     showgrid="false"
     inkscape:zoom="3.7317531"
     inkscape:cx="45.923268"
     inkscape:cy="70.458933"
     inkscape:window-x="1072"
     inkscape:window-y="162"
     inkscape:window-maximized="1"
     inkscape:current-layer="Layer_1" /><path
     style="fill:#76a9ea;stroke-width:0.99999994"
     d="m 98.409567,20.085857 c -2.221844,0.985237 -4.528289,1.762505 -6.894956,2.325219 2.607795,-2.478088 4.568518,-5.577649 5.674685,-9.037318 v 0 c 0.315734,-0.987676 -0.757031,-1.841743 -1.648889,-1.312919 v 0 c -3.292415,1.952921 -6.83888,3.417977 -10.54114,4.35494 -0.214797,0.05437 -0.43642,0.08192 -0.658775,0.08192 -0.67438,0 -1.329986,-0.250393 -1.845644,-0.704856 -3.939,-3.471615 -9.005135,-5.383575 -14.264855,-5.383575 -2.27597,0 -4.573882,0.354743 -6.830103,1.054479 -6.99053,2.168205 -12.384346,7.934564 -14.076633,15.048949 -0.634882,2.668504 -0.806768,5.339446 -0.51127,7.938464 0.03389,0.298668 -0.107277,0.507126 -0.194317,0.604894 -0.152869,0.171399 -0.369617,0.269654 -0.594654,0.269654 -0.02511,0 -0.05096,-0.0012 -0.07656,-0.0037 C 30.644436,33.900394 16.845747,26.528301 7.0921139,14.56404 v 0 C 6.5947408,13.953783 5.6409548,14.028633 5.2445192,14.70862 v 0 c -1.9100101,3.27681 -2.9193849,7.024663 -2.9193849,10.838344 0,5.844622 2.3481373,11.352541 6.4268403,15.367853 C 7.0367689,40.508141 5.3766644,39.867651 3.8345641,39.011146 v 0 C 3.0885045,38.596668 2.1705586,39.129394 2.1600747,39.98273 v 0 c -0.1067889,8.682573 4.9766565,16.408435 12.5918293,19.887365 -0.153357,0.0037 -0.306714,0.0054 -0.460314,0.0054 -1.207105,0 -2.429326,-0.116542 -3.632287,-0.346455 v 0 C 9.8191324,59.368577 9.1133015,60.165593 9.3741786,60.980163 v 0 C 11.845928,68.697004 18.490247,74.385099 26.44139,75.676562 19.842419,80.106352 12.157762,82.44303 4.1595632,82.44303 L 1.666115,82.44153 c -0.76824632,0 -1.41800085,0.500786 -1.61378054,1.244895 -0.19285397,0.732894 0.16237768,1.506017 0.81749603,1.887092 9.01269261,5.245092 19.29295551,8.017215 29.73388951,8.017215 9.13923,0 17.688195,-1.813705 25.409669,-5.390402 7.078545,-3.279006 13.333743,-7.966259 18.591756,-13.931567 4.89815,-5.556925 8.72841,-11.971818 11.383992,-19.066211 2.531483,-6.762529 3.869514,-13.97834 3.869514,-20.867444 v -0.328169 c -2.44e-4,-1.106167 0.500055,-2.146994 1.372896,-2.855507 3.312163,-2.689227 6.196439,-5.854861 8.572371,-9.408884 v 0 c 0.627322,-0.938426 -0.362058,-2.114567 -1.394351,-1.656691 z"
     id="path2"
     inkscape:connector-curvature="0" /><g
     id="g4"
     transform="translate(0,-310.155)" /><g
     id="g6"
     transform="translate(0,-310.155)" /><g
     id="g8"
     transform="translate(0,-310.155)" /><g
     id="g10"
     transform="translate(0,-310.155)" /><g
     id="g12"
     transform="translate(0,-310.155)" /><g
     id="g14"
     transform="translate(0,-310.155)" /><g
     id="g16"
     transform="translate(0,-310.155)" /><g
     id="g18"
     transform="translate(0,-310.155)" /><g
     id="g20"
     transform="translate(0,-310.155)" /><g
     id="g22"
     transform="translate(0,-310.155)" /><g
     id="g24"
     transform="translate(0,-310.155)" /><g
     id="g26"
     transform="translate(0,-310.155)" /><g
     id="g28"
     transform="translate(0,-310.155)" /><g
     id="g30"
     transform="translate(0,-310.155)" /><g
     id="g32"
     transform="translate(0,-310.155)" /></svg>